# xmcd
#
# Track frame offsets:
#	150
#	27116
#	42461
#	60461
#	79403
#	97054
#	115316
#	132659
#	149216
#	164236
#	178034
#	199161
#	219101
#
# Disc length: 3253 seconds
#
# Revision: 1
# Processed by: cddbd v1.5.2PL0 Copyright (c) Steve Scherf et al.
# Submitted via: audiograbber 1.83.01
#
DISCID=cd0cb30d
DTITLE=Andy Heinrich - Andy - One Man - One Voice
DYEAR=2012
DGENRE=Country
TTITLE0=Part Of You, Part Of Me
TTITLE1=Achy Breaky Heart
TTITLE2=Shamelles
TTITLE3=Peaceful Easy Feeling
TTITLE4=Standing Outside The Fire
TTITLE5=Money For Nothing
TTITLE6=Dancing In The Dark
TTITLE7=If Tomorrow Never Comes
TTITLE8=Landslide
TTITLE9=Chippolina
TTITLE10=Heaven
TTITLE11=Runaway Train
TTITLE12=Nothing Else Matters
EXTD=
EXTT0=
EXTT1=
EXTT2=
EXTT3=
EXTT4=
EXTT5=
EXTT6=
EXTT7=
EXTT8=
EXTT9=
EXTT10=
EXTT11=
EXTT12=
PLAYORDER=
